# xmcd
#
# Track frame offsets: 
#        150
#        20840
#        46755
#        65870
#        87545
#        114063
#        148614
#        173836
#        197103
#        218132
#
# Disc length: 3209 seconds
#
# Revision: 1
# Processed by: cddbd v1.5.2PL0 Copyright (c) Steve Scherf et al.
# Submitted via: ExactAudioCopy v1.0b3
#
DISCID=900c870a
DTITLE=Various Artist - Buddha Bar
DYEAR=2007
DGENRE=Chillout
TTITLE0=Koop - Koop Island Blues
TTITLE1=BN Loco - Cancion Playera
TTITLE2=David Lowe's Dreamcatcher - Passion Of The Dance
TTITLE3=Peter Pozorek - Morricone Dub
TTITLE4=Bikram Ghosh - Rhythm Speaks
TTITLE5=Le Grand Orchestre Du Comptoir De Marrakech - Symphounuit
TTITLE6=Gaudi - Sufani
TTITLE7=Amsterdam Klezmer Band - Sadagora Hot Dub
TTITLE8=Forty Thieves Orkestar - Balkan Babylon
TTITLE9=Etnik Sentetik - Azap
EXTD=
EXTT0=
EXTT1=
EXTT2=
EXTT3=
EXTT4=
EXTT5=
EXTT6=
EXTT7=
EXTT8=
EXTT9=
PLAYORDER=
